<!DOCTYPE svg PUBLIC "-//W3C//DTD SVG 20010904//EN" "http://www.w3.org/TR/2001/REC-SVG-20010904/DTD/svg10.dtd"[]><svg version="1.0" xmlns="http://www.w3.org/2000/svg" width="25" height="25" viewBox="0 0 2000.000000 2000.000000" preserveAspectRatio="xMidYMid meet"><g transform="translate(0.000000,2000.000000) scale(0.100000,-0.100000)" fill="#000000" stroke="none"><path d="M9799 15275 c-406 -56 -760 -233 -1046 -523 -530 -538 -661 -1351 -326 -2027 254 -513 722 -864 1296 -972 134 -25 466 -25 602 1 737 137 1300 687 1446 1412 27 138 37 419 19 561 -23 184 -95 425 -175 583 -137 270 -368 524 -630 695 -342 224 -786 324 -1186 270z m520 -106 c524 -89 985 -438 1221 -924 65 -134 108 -261 141 -416 19 -88 23 -136 23 -314 1 -181 -2 -226 -22 -323 -135 -665 -630 -1178 -1282 -1328 -760 -174 -1540 195 -1884 891 -75 152 -117 272 -148 428 -20 97 -23 142 -23 332 1 246 14 334 81 534 185 556 653 977 1227 1106 219 48 436 53 666 14z" /><path d="M10003 14790 c-105 -19 -207 -73 -282 -150 -30 -31 -44 -38 -91 -42 -79 -8 -160 -40 -230 -89 -206 -144 -268 -405 -153 -634 39 -76 135 -170 216 -210 38 -19 76 -35 83 -35 7 0 16 -4 19 -10 3 -5 -12 -101 -34 -212 -22 -112 -43 -224 -46 -249 l-7 -46 94 24 c169 43 334 56 618 49 140 -3 282 -10 315 -15 33 -6 60 -9 61 -8 1 1 -17 83 -40 182 l-42 180 36 11 c116 35 251 147 305 254 74 145 73 319 -3 469 -35 70 -132 168 -203 205 -43 23 -62 40 -84 79 -33 60 -116 144 -176 179 -101 59 -247 87 -356 68z m402 -400 c3 -6 -57 -128 -133 -273 -77 -144 -150 -283 -162 -308 l-23 -46 127 -173 c70 -96 125 -180 124 -188 -4 -20 -41 -43 -53 -34 -6 4 -57 78 -115 164 -58 87 -108 157 -113 158 -4 0 -40 -65 -79 -145 -40 -80 -78 -145 -84 -145 -7 0 -21 8 -33 18 l-21 17 86 155 c47 85 86 158 87 162 1 3 -27 49 -62 102 -51 76 -69 96 -88 96 -63 0 -99 37 -188 195 -37 66 -69 123 -72 128 -2 4 -2 7 1 7 2 0 35 -43 72 -95 60 -85 84 -110 84 -87 0 6 -30 58 -92 160 -35 58 -11 34 53 -53 35 -47 69 -85 77 -85 15 0 2 25 -80 148 -27 39 -47 72 -44 72 2 0 38 -43 80 -95 67 -83 96 -110 96 -89 0 3 -34 56 -77 117 -88 129 -86 128 37 -13 115 -132 134 -167 127 -233 -4 -48 -2 -53 53 -129 l58 -79 28 46 c25 43 26 49 14 85 -7 22 -10 53 -6 74 16 82 109 220 216 319 58 54 91 69 105 47z" /><path d="M9744 12932 c-64 -22 -101 -53 -148 -119 -44 -62 -101 -111 -176 -150 -48 -24 -66 -28 -140 -28 -111 0 -155 21 -190 91 l-25 49 -3 -34 c-9 -89 31 -152 122 -195 167 -79 419 -47 690 88 l129 65 116 -59 c165 -83 296 -122 451 -136 131 -11 279 34 340 102 31 36 47 104 35 151 -7 28 -7 28 -20 -12 -54 -158 -317 -151 -462 11 -27 29 -63 72 -82 94 -19 23 -58 53 -85 68 -54 28 -36 27 -291 19 -22 -1 -78 2 -125 6 -70 6 -94 4 -136 -11z" /><path d="M9560 10869 c-210 -7 -523 -23 -685 -34 -1805 -127 -3427 -427 -5203 -961 -207 -62 -821 -259 -826 -265 -2 -2 1 -42 7 -89 22 -180 -47 -399 -169 -532 -39 -43 -115 -112 -137 -124 -15 -9 -3 -48 119 -374 75 -201 180 -484 234 -630 54 -146 108 -291 119 -322 l22 -56 107 0 c164 1 283 -34 410 -120 77 -53 180 -165 221 -241 18 -34 35 -61 38 -61 3 0 139 43 302 94 1488 475 2888 770 4321 911 939 92 1653 106 2515 49 1650 -108 3333 -440 5016 -990 108 -35 201 -64 207 -64 6 0 27 29 47 65 129 232 403 377 671 357 l62 -4 22 58 c12 33 83 223 157 424 74 201 171 462 215 580 44 118 88 237 98 264 l18 49 -52 38 c-111 83 -215 243 -252 389 -18 69 -24 218 -11 287 l7 42 -292 95 c-1901 616 -3725 984 -5533 1116 -732 53 -1246 67 -1775 49z m990 -59 c2104 -85 4217 -473 6290 -1156 l255 -83 0 -133 c0 -118 3 -142 28 -214 43 -129 92 -209 189 -308 l88 -89 -190 -511 c-104 -281 -212 -569 -238 -641 l-49 -130 -111 -7 c-164 -9 -279 -48 -412 -138 -69 -47 -168 -151 -211 -223 l-32 -55 -101 35 c-175 59 -642 202 -876 268 -1586 447 -3026 687 -4600 766 -987 49 -2298 -47 -3550 -261 -962 -165 -2020 -428 -3007 -748 l-183 -59 -29 52 c-39 69 -130 166 -206 221 -128 91 -253 133 -425 143 l-104 6 -52 140 c-28 77 -135 366 -238 642 l-186 501 76 74 c91 88 157 190 197 306 28 80 30 99 31 225 l1 138 275 90 c2041 671 4173 1064 6235 1148 284 12 858 12 1135 1z" /><path d="M9840 9998 c0 -35 -5 -219 -10 -410 -12 -377 -7 -429 41 -534 34 -73 123 -155 200 -186 164 -66 413 -62 550 7 95 48 165 135 200 245 22 67 31 244 41 730 l3 185 -131 3 -132 3 -6 -163 c-3 -90 -9 -281 -14 -424 -8 -251 -9 -263 -33 -310 -37 -71 -92 -97 -207 -97 -140 1 -210 42 -238 141 -14 48 -15 99 -5 454 6 219 9 403 6 409 -4 5 -64 9 -136 9 l-129 0 0 -62z" /><path d="M9047 10041 l-109 -6 -250 -603 c-138 -331 -248 -605 -245 -609 4 -3 58 -2 122 3 l116 9 57 131 57 132 225 6 c124 4 259 9 300 12 l76 6 63 -131 63 -131 130 0 c116 0 129 2 124 16 -4 9 -133 277 -288 595 -268 549 -283 579 -307 577 -15 -1 -75 -4 -134 -7z m142 -455 c56 -121 100 -220 98 -222 -1 -1 -88 -5 -194 -9 l-192 -7 55 139 c31 76 71 180 91 231 20 51 37 91 39 90 1 -2 48 -102 103 -222z" /><path d="M11066 10008 c-3 -7 -23 -254 -46 -548 -23 -294 -44 -558 -47 -587 l-6 -51 124 -8 c68 -5 128 -9 134 -9 12 0 20 56 35 263 l13 162 41 -1 c82 -2 80 0 217 -234 148 -251 119 -229 303 -240 61 -3 119 -9 129 -11 9 -3 17 -1 17 5 0 6 -63 110 -140 231 -77 121 -140 224 -140 228 0 4 19 13 43 19 149 41 251 194 249 377 -1 188 -111 321 -297 361 -58 12 -526 55 -603 55 -12 0 -24 -6 -26 -12z m514 -240 c112 -21 150 -63 150 -162 0 -113 -50 -172 -153 -183 -48 -5 -275 12 -284 21 -4 4 15 259 23 315 l5 33 102 -6 c56 -4 127 -12 157 -18z" /><path d="M7780 9961 c-411 -39 -485 -49 -488 -62 -3 -19 14 -198 19 -204 3 -2 86 4 186 13 100 9 184 14 187 12 2 -3 24 -218 48 -478 25 -259 48 -475 51 -479 8 -7 245 12 254 21 4 3 -13 221 -38 484 -38 403 -42 478 -30 481 8 1 91 11 185 20 l171 16 -2 35 c0 19 -4 70 -8 113 -6 71 -8 77 -28 76 -12 -1 -240 -22 -507 -48z" /><path d="M6655 9854 c-181 -28 -337 -133 -384 -259 -31 -81 -26 -197 9 -269 62 -124 167 -170 450 -196 192 -18 266 -44 296 -101 44 -86 -26 -173 -165 -205 -142 -34 -251 -1 -298 90 -9 17 -21 34 -27 38 -6 4 -66 8 -134 8 l-124 0 7 -32 c12 -64 74 -176 118 -213 98 -85 216 -120 372 -112 228 13 408 105 481 249 22 42 28 71 32 138 5 115 -20 185 -92 255 -82 80 -129 94 -460 130 -160 18 -202 33 -223 83 -40 96 40 174 195 188 89 8 148 -15 188 -75 26 -40 28 -41 83 -40 31 1 88 4 127 8 l72 6 -19 62 c-34 109 -121 194 -232 229 -52 15 -216 26 -272 18z" /><path d="M12399 9302 c-193 -305 -349 -555 -347 -557 7 -7 229 -36 237 -31 4 3 42 57 82 121 45 70 80 115 90 115 16 0 488 -64 555 -75 30 -5 31 -7 69 -144 l39 -139 124 -17 c68 -9 125 -15 128 -12 4 3 -353 1245 -360 1254 -1 2 -62 11 -134 21 l-132 18 -351 -554z m521 64 c33 -125 60 -230 58 -231 -4 -4 -371 45 -376 50 -2 1 40 74 94 161 126 209 156 255 159 252 2 -2 31 -106 65 -232z" /><path d="M13684 9683 c-4 -21 -56 -285 -115 -587 -60 -303 -106 -552 -103 -555 3 -3 54 -15 114 -27 l109 -20 5 20 c2 12 37 185 76 386 39 201 73 371 76 379 4 12 65 -109 166 -329 11 -25 61 -130 110 -235 49 -104 105 -224 124 -265 l35 -75 110 -21 c76 -14 112 -17 115 -10 7 20 216 1091 221 1134 3 23 2 42 -3 42 -5 0 -54 9 -108 20 -55 11 -100 19 -102 17 -1 -1 -32 -155 -69 -342 -36 -187 -69 -348 -73 -357 -5 -12 -65 111 -194 395 l-187 412 -138 27 c-76 15 -143 27 -150 27 -7 1 -15 -16 -19 -36z" /><path d="M5535 9624 c-209 -45 -395 -85 -414 -89 -32 -6 -33 -8 -28 -43 7 -41 239 -1135 243 -1140 2 -3 905 188 911 193 2 1 -7 50 -19 108 -16 76 -27 107 -37 107 -14 0 -613 -127 -637 -135 -10 -3 -69 233 -61 242 2 1 120 28 262 58 143 31 261 58 263 60 2 1 -7 53 -19 114 -17 87 -25 111 -38 111 -9 0 -128 -25 -266 -54 -137 -30 -252 -51 -255 -46 -11 17 -53 241 -46 247 3 4 137 35 297 69 160 34 292 64 294 66 4 3 -29 160 -41 201 -3 9 -11 16 -17 16 -7 -1 -183 -39 -392 -85z" /><path d="M14891 9433 c-27 -105 -41 -162 -41 -170 0 -5 81 -29 180 -53 119 -29 180 -49 180 -57 0 -7 -50 -212 -110 -454 -61 -243 -112 -450 -113 -462 -2 -18 12 -24 125 -52 l128 -33 9 37 c6 20 58 227 116 461 58 234 107 430 110 437 2 7 58 -3 180 -33 97 -25 179 -42 184 -40 9 6 56 204 50 210 -5 6 -963 246 -979 246 -5 0 -14 -17 -19 -37z" /><path d="M4475 9354 c-121 -30 -585 -170 -585 -176 0 -11 328 -1139 332 -1144 3 -2 243 64 255 70 1 1 -95 343 -112 396 -5 15 4 21 51 35 31 9 61 14 68 12 6 -3 98 -75 205 -161 106 -86 200 -156 208 -156 14 0 294 80 301 86 2 1 -94 75 -215 165 -120 89 -220 164 -223 166 -3 2 4 9 15 15 43 23 114 110 135 166 18 47 21 73 18 152 -3 81 -8 105 -35 162 -66 140 -169 209 -318 214 -44 2 -89 1 -100 -2z m128 -246 c40 -28 67 -91 67 -157 0 -66 -24 -108 -77 -138 -42 -23 -282 -98 -290 -90 -6 6 -101 331 -98 335 1 1 40 14 86 28 192 58 255 63 312 22z" /></g></svg>